<?xml version="1.0" encoding="UTF-8"?>
<svg id="Layer_1" data-name="Layer 1" xmlns="http://www.w3.org/2000/svg" xmlns:xlink="http://www.w3.org/1999/xlink" viewBox="0 0 1200 1200">
  <defs>
    <style>
      .cls-1 {
        fill: url(#linear-gradient-2);
      }

      .cls-2 {
        fill: url(#linear-gradient-6);
      }

      .cls-4 {
        fill: url(#linear-gradient-5);
      }

      .cls-5 {
        fill: url(#linear-gradient-7);
      }

      .cls-6 {
        fill: url(#linear-gradient-3);
      }

      .cls-7 {
        fill: url(#linear-gradient);
      }

      .cls-8 {
        fill: url(#linear-gradient-4);
      }

      .cls-9 {
        fill: url(#linear-gradient-8);
      }
    </style>
    <linearGradient id="linear-gradient" x1="868.5" y1="655.98" x2="300.81" y2="328.23" gradientUnits="userSpaceOnUse">
      <stop offset="0" stop-color="#f4e15e"/>
      <stop offset=".33" stop-color="#f4e16b"/>
      <stop offset=".5" stop-color="#f4e274"/>
      <stop offset=".67" stop-color="#eccc53"/>
      <stop offset=".89" stop-color="#e3b530"/>
      <stop offset="1" stop-color="#e0ad23"/>
    </linearGradient>
    <linearGradient id="linear-gradient-2" x1="924.63" y1="917.38" x2="644" y2="755.35" xlink:href="#linear-gradient"/>
    <linearGradient id="linear-gradient-3" x1="747.38" y1="777.55" x2="441.68" y2="601.05" xlink:href="#linear-gradient"/>
    <linearGradient id="linear-gradient-4" x1="515.34" y1="906.38" x2="353.13" y2="812.73" xlink:href="#linear-gradient"/>
    <linearGradient id="linear-gradient-5" x1="627.62" y1="884.64" x2="507.71" y2="815.41" xlink:href="#linear-gradient"/>
    <linearGradient id="linear-gradient-6" x1="380.98" y1="876.91" x2="263.19" y2="808.91" xlink:href="#linear-gradient"/>
    <linearGradient id="linear-gradient-7" x1="836.44" y1="809.32" x2="835.79" y2="808.95" xlink:href="#linear-gradient"/>
    <linearGradient id="linear-gradient-8" x1="909.6" y1="861.6" x2="908.87" y2="861.18" xlink:href="#linear-gradient"/>
  </defs>
  <g>
    <path class="cls-7" d="m451.41,495.71c-6.25,1.64-11.3,4.38-15.5,8.26-2.65,2.45-4.23,1.56-6.39-.22-2.72-2.24-.77-4.57.4-5.96,1.05-1.25,2.23-2.51,3.02-3.92,2.78-4.99,9.95-7.95,8.56-14.68-1.19-5.77-2.9-11.59-5.54-17.04-1.64-3.4-2.74-7.09-3.8-10.73-1.85-6.32-5.86-7.89-11.19-3.92-7.43,5.52-14.71,11.25-22.06,16.88-4.41,3.38-8.72,6.89-13.29,10.04-1.57,1.08-3.67,3.16-5.78.87-1.94-2.12-2.6-4.73-.98-7.41,1.39-2.3,2.63-4.78,4.44-6.72,4.22-4.54,5.8-9.72,5.02-15.78-.26-2.04-.27-4.27,1.94-5.34,2.24-1.09,3.96.5,5.25,1.95,1.86,2.1,3.03,1.39,4.25-.47,1.29-1.96,2.43-4.05,3.91-5.86,2.01-2.46,2.17-4.79.21-7.24-1.25-1.56-2.14-3.33-.71-5,1.18-1.37,2.89-1.16,4.55-.23,4.1,2.31,5.94-.08,8.74-3.13,7.69-8.37,3.52-17.47,2.86-26.4-.38-5.17-1.66-10.24-1.53-15.48.05-2.09.71-3.71,2.46-4.62,2.31-1.2,3.45.92,4.53,2.24,3.58,4.39,3.65,10.29,6.26,15.14,1.17,2.18,2.27,4.7,2.63,6.96,1.74,10.96,11.67,11.17,18.83,14.9,2.19,1.14,2.55-1.48,3.36-2.82,1.02-1.68,1.61-4.3,4.09-3.84,2.35.44,3.44,2.88,3.62,5.04.37,4.53,2.14,7.01,6.91,8.21,3.98,1,6.78,2.12,8.73-2.83.94-2.37,4.08-2.31,4.64.1,2.23,9.65,10.99,10.99,17.92,14.2,3.93,1.82,5.35,4.12,4.54,7.65-.79,3.48-4.15,4.5-7.23,3.98-4.34-.74-8.72-.51-13.02-1.07-10.29-1.33-20.61-2.4-30.97-2.83-6.7-.28-8.63,2.66-7.15,9.25,1.97,8.72,3.94,17.46,5.34,26.29.46,2.92,1.92,3.46,4.02,4.12,5.26,1.68,10.52,3.39,15.76,5.13,3.2,1.06,5.59,3.1,4.61,6.68-1.01,3.69-3.16,5.15-7.64,3.86-3.63-1.04-8.91-2.17-11.5.83-2.01,2.33,1.79,5.93,3.27,8.75,11.49,21.77,23.07,43.5,40.84,61.09,4.71,4.66,10.04,8.36,15.76,11.72,9.24,5.44,22.54,2.63,29.83-4.14,7.97-7.4,13.13-16.51,17.81-26.3,10.72-22.41,15.63-46.43,20.57-70.39,2.65-12.84,4.44-25.93,5.49-39.08.68-8.47,1.88-16.9,2.95-25.33.34-2.67-.52-3.83-3.19-3-3.98,1.24-8.29,1.59-11.8,4.06-2.9,2.04-4.62.38-6.38-1.65-2.1-2.43-.99-4.56.92-6.14,4.81-3.96,9.44-8.38,14.84-11.31,5.82-3.15,6.34-7.68,5.58-12.97-1.27-8.83-1.55-17.71-1.93-26.58-.48-11.23-4.21-12.83-13.56-9.29-14.52,5.5-28.85,11.48-43.26,17.26-1.55.62-3.07,1.45-4.69,1.74-2.37.42-4.69-.09-6.19-2.19-1.48-2.07-.01-3.67,1.02-5.46,3.15-5.48,8.45-8.72,13.14-12.47,2.93-2.35,4.19-5.1,4.51-8.39.19-1.93.81-3.59,1.56-5.23,2.34-5.12,5.5-5.58,8.34-.73,2.25,3.86,3.72,3.3,6.15.51,1.19-1.37,2.97-2.22,4.31-3.49,2.34-2.23,5.27-4.02,3.39-8.39-.69-1.6-1.53-4.76,1.14-6.38,2.79-1.69,5.17.38,6.68,1.89,3.3,3.3,4.84,1.06,7.83-.66,10.75-6.18,11.46-16.47,12.8-26.96.92-7.2.68-14.71,4.08-21.45.79-1.57,1.16-3.53,3.73-3.55,2.71-.02,3.25,1.98,4.25,3.69.88,1.51,1,3.14,1.1,4.86.6,10.05,1.36,20.09,1.96,30.14.09,1.56.84,2.42,1.92,3.32,4.67,3.89,9.34,7.76,13.91,11.77,1.68,1.47,2.84,1.67,3.89-.5.14-.29.45-.51.66-.77,1.73-2.15,3.77-4.81,6.63-3.23,2.57,1.41,3.11,5.47,2.28,7.54-1.97,4.97.4,7.1,4,9.16,1.31.75,2.74,1.39,3.83,2.39,3.03,2.79,5.19,2.96,7.71-.94,2.21-3.42,5.57-2.76,5.61,1.2.1,9.6,6.93,13.75,13,18.91,2.36,2.01,5.74,3.05,6.2,7.39.28,2.59.59,4.66-1.3,6.29-1.96,1.69-4.41,2.36-7.05,1.33-9.99-3.88-19.99-7.75-29.99-11.61-7.24-2.79-14.45-5.68-21.76-8.3-3.91-1.4-9.09,2.97-9.47,8.07-.81,11.06-1.33,22.13-2.14,33.19-.2,2.73.8,4.29,3.01,5.7,5.53,3.51,10.86,7.33,16.38,10.85,3.44,2.2,5.08,4.76,3.04,8.77-2.14,4.2-5.7,4.02-8.85,2.12-3.75-2.27-7.97-2.18-11.89-3.45-2.02-.65-3.77-.35-3.76,2.9.05,13.16.98,26.24,1.93,39.36,1.12,15.52,3.1,30.88,6.41,46.01,5.07,23.22,11.48,46.06,26.52,65.21,7.03,8.95,15.5,16.22,27.94,15.4,8.64-.57,15.94-4.77,22.3-10.41,10.48-9.3,18.22-20.72,24.75-33.01,6.58-12.4,13.09-24.83,19.81-37.15,1.38-2.52.59-2.89-1.69-2.87-4.75.02-9.55-.38-14.24.17-2.61.31-3.67-.44-4.44-2.5-.94-2.53.61-3.95,2.6-4.71,4.19-1.6,8.39-3.32,12.73-4.3,5.54-1.25,8.14-4.64,8.85-9.92.81-6.1,2.37-12.02,3.89-17.97,1.62-6.34-.7-9.29-7.31-8.66-11.79,1.13-23.52,3.09-35.33,3.8-4.33.26-9.13,2.99-13.42-.7-1.85-1.59-2.54-2.59-.19-4.7,3.92-3.52,8.8-4.72,13.42-6.58,3.35-1.35,6.02-2.94,7.63-6.58,2.54-5.75,5.12-5.79,8.41-.55,1.06,1.68,1.96,2.45,4,1.29,2.16-1.23,4.51-2.18,6.87-2.95,2.07-.68,3.17-1.73,2.95-4-.21-2.13.86-3.69,2.75-4.35,1.96-.69,3.89.08,4.76,1.92,1.49,3.13,3.55,2.6,5.91,1.38.15-.08.28-.23.43-.26,8.97-1.78,13.82-7.73,16.87-15.93,1.64-4.41,4.16-8.49,6.26-12.72,1.21-2.45,3.02-4.43,5.86-3.9,3.23.6,1.84,3.55,1.91,5.51.21,5.9-2.07,11.43-3.24,17.09-1.13,5.46-1.2,9.75,3.36,13.53,1.79,1.48,3.21,3.46,4.59,5.37,1.32,1.82,2.32,2.47,4.38.69,1.76-1.52,4.27-2.69,6.47-.9,2.02,1.64.41,3.67-.18,5.54-1.06,3.4,3.79,11.34,7.2,11.94,1.66.29,2.28-1.27,3.45-1.85,2.63-1.32,5.43-1.45,4.41,2.22-2.19,7.9,3.43,11.7,7.45,16.42,3.86,4.54,3.94,7.83.03,10.15-1.71,1.01-3.46,1.15-5.18.08-12.36-7.74-24.71-15.49-37.06-23.24-4.46-2.8-8.67-1.46-11.19,3.32-3.58,6.81-5.77,14.19-8.89,21.19-1.09,2.44-.82,4.22,1.35,6.14,3.81,3.37,7.22,7.18,10.88,10.72,1.92,1.86,3.23,3.79.7,5.96-1.94,1.66-3.52,4.27-6.92,1.26-3.91-3.46-8.92-5.24-13.99-6.71-2.37-.68-2.99-.2-3,2.16,0,13.16.69,26.28,1.66,39.41.75,10.18,2.06,20.22,4.23,30.17,2.05,9.39,5.07,18.45,11.62,25.71,5.02,5.56,11.62,7.04,18.91,5.29,11.81-2.84,21.28-9.83,30.29-17.44,19.83-16.76,37.25-35.9,54.02-55.65,2.07-2.44,4.19-4.85,6.23-7.32,1.98-2.4,1.39-4.05-1.64-4.64-4.07-.79-7.98-2.68-12.25-2.05-2.62.39-3.73-1.02-4.2-3.17-.52-2.39.06-4.15,2.77-5.04,5.42-1.78,11.1-1.99,16.64-2.86,4.38-.69,6.52-1.9,8.51-6.48,2.78-6.38,5.63-12.87,8.89-19.1,5.65-10.81,3.71-14.07-8.51-15.33-12.79-1.32-25.57-2.77-38.36-4.03-3.18-.31-5.24-2.44-5.96-4.77-.6-1.92,1.87-3.53,3.85-4.67,4.32-2.48,9.29-2.69,13.91-3.47,3.8-.64,5.94-2.26,8.11-4.94,5.14-6.35,6.54-6.18,9.19,1.2.74,2.06,1.18,3.04,3.33,1.8,1.78-1.03,3.94-.84,5.82-1.17,3.27-.57,5.13-1.75,6.04-4.89.53-1.82,1.57-3.43,3.81-3.55,2.58-.14,3.11,2.08,3.45,3.7.63,3.06,1.72,4.19,4.8,2.67.98-.49,2.34-.16,3.49-.36,6.51-1.11,11.61-4.02,15.26-9.93,3.53-5.71,8-10.84,12.04-16.23,1.87-2.49,4.55-5.64,7.23-3.94,2.56,1.62,1.57,5.71.3,8.67-3.35,7.82-6.68,15.64-10.25,23.36-.8,1.73-.73,2.86.05,4.51,1.8,3.78,3.66,7.61,4.75,11.62.87,3.2,2.06,3.65,4.86,2.42,1.89-.83,4.3-2.36,5.98-.1,1.63,2.2-.04,4.45-1.03,6.6-.88,1.92-3.54,3.37-2.6,5.69,1.32,3.25,3.23,6.28,5.08,9.3,1.02,1.66,2.42.73,3.48-.1,1.16-.9,2.31-1.53,3.68-.7,1.65,1,1.58,3.07.99,4.12-4.71,8.3.59,15.02,3.41,22.01,1.68,4.16.19,6.92-2.82,9.12-3.01,2.19-4.85-.46-6.53-2.42-9.1-10.63-18.28-21.2-27.14-32.02-4.73-5.78-10.61-5.91-14.55.71-4.38,7.36-9.02,14.59-13.9,21.62-1.54,2.22-1.59,3.79-.41,5.94,2.77,5.02,5.51,10.06,8.1,15.17,2.07,4.09-.5,8.73-4.99,9.3-1.03.13-1.6-.12-2.27-1.28-3.1-5.35-7.92-9.08-12.86-12.63-2.49-1.79-4-1.21-5.26,1.72-7.84,18.27-15.87,36.45-23.75,54.7-7.2,16.67-14.28,33.39-21.45,50.06-5.34,12.42-10.74,24.81-16.11,37.21-.78,1.81-2.15,2.08-3.74,1.32-19.45-9.35-40.01-15.82-60.51-22.23-18.94-5.92-38.27-10.64-57.86-14.22-11.94-2.18-23.92-4.01-35.91-5.81-8.27-1.24-16.68-1.48-25.03-2.2-15.53-1.34-31.13-1.59-46.64-.83-14.51.71-29.03,1.76-43.51,3.6-17.69,2.24-35.17,5.41-52.39,9.67-24.2,5.99-47.89,13.81-70.77,23.86-7.68,3.38-15.29,6.92-22.86,10.55-2.38,1.14-3.7,1.27-4.99-1.56-4.76-10.44-9.86-20.72-14.14-31.38-1.67-4.16-4-8.02-5.75-12.2-4.82-11.52-9.95-22.94-15.42-34.17-8.26-16.96-15.43-34.41-23.67-51.39-2.27-4.68-5.1-9.36-6.31-14.66-.95-4.16-3.67-3.9-6.34-1.61-3.6,3.09-7.27,6.19-9.95,10.14-1.21,1.77-2.24,3.23-4.32,1.91-1.95-1.23-4.17-2.66-2.88-5.69,1.81-4.26,3.31-8.69,5.5-12.74,2.67-4.93,3.05-9.15-.52-13.99-4.78-6.48-8.95-13.42-13.23-20.25-3.15-5.02-7.58-5.78-11.49-1.23-7.24,8.44-14.17,17.16-21.2,25.78-1.91,2.35-3.58,4.91-5.6,7.15-2.07,2.3-4.16,5.75-7.91,3.55-3.45-2.03-2.65-6.28-1.52-8.77,1.5-3.32,2-6.97,3.89-10.18,1.51-2.57,2.82-5.75-.03-8.72-.72-.75-.88-2.12-1.14-3.24-1.04-4.65.51-6.61,4.95-5.03,5.22,1.86,6.13-.97,7.17-4.74,1.13-4.12,2.56-7.92-1.05-11.86-2.33-2.55-.93-4.4,2.51-3.88,4.08.62,6.11-.59,8.05-4.74,3.73-7.96,2.31-15.09-.85-22.51-2.45-5.75-4.75-11.58-6.95-17.43-.85-2.26-2.07-5.05.92-6.62,2.97-1.56,5.19.62,6.74,2.7,3.51,4.72,7.3,9.38,9.84,14.61,4.01,8.26,10.33,11.81,19.13,12.69,4.11.41,6.38.26,7.69-4.38,1.39-4.93,3.11-4.97,6.4-1.11.65.77,1.47,1.57,1.71,2.48,1.8,6.84,7.9,4.68,12.31,5.82,2.03.53,2.92-1.24,2.82-3.24-.08-1.61.08-3.19,1.92-3.66,1.73-.44,3.64-.23,4.49,1.51,3.83,7.9,11.54,7.28,18.39,8.54,3.79.7,7.85,1.62,7.64,6.3-.2,4.5-4.16,5.41-8.01,5.96-10.7,1.54-21.37,3.23-32.06,4.81-3.3.49-6.61.86-9.92,1.27-4.25.53-7.09,3.78-5.69,7.66,3.69,10.25,8.67,19.96,13.55,29.7.63,1.26,1.75,1.43,3,1.35,5.4-.33,10.66,1.72,16.09,1.02,1.99-.26,3.68.66,5.14,1.68,3.08,2.14,2.37,6.98-1.04,8.55-1.73.8-3.5.92-5.36,1.02-3.87.19-8.6,1.02-10.41,3.66-1.24,1.82,3.57,4.9,5.73,7.37,9.16,10.47,19.13,20.18,29.17,29.79,14.62,13.99,29.34,27.96,46.73,38.56,7.58,4.62,15.34,8.73,24.95,8.39,9.75-.34,16.55-8.62,18.92-16.34,3.13-10.23,4.76-20.67,5.4-31.41.36-6.05.76-12.1.7-18.14-.12-11.92-.84-23.82-2.02-36.04Z"/>
    <path class="cls-1" d="m835.85,809.45c-.03,30.72-.17,61.44-.05,92.17.05,12.06,3.29,15.58,15.43,17.65,3.13.53,2.41,2.62,2.62,4.55.28,2.54-1.22,2.64-3.12,2.64-12.9-.04-25.8-.05-38.71,0-2.01,0-3.24-.3-3.05-2.73.16-2.07-.1-3.95,2.83-4.47,11.62-2.05,15.18-6.12,15.23-18.56.16-34.8.1-69.59.02-104.39-.02-8.21-9.56-17.43-17.25-16.31-4.51.66-7.58,4.04-8.97,8.6-5.75,18.84-11.58,37.65-17.24,56.52-4.33,14.43-8.42,28.94-12.67,43.4-3.55,12.06-7.2,24.1-10.8,36.15-.14.48-.2.98-.35,1.46-.68,2.06-1.4,4.22-4.02,4.31-2.88.1-2.83-2.75-3.37-4.34-3.03-8.93-6.11-17.87-8.41-26.99-3.93-15.58-9.34-30.72-13.5-46.22-1.2-4.46-2.73-8.84-3.92-13.3-.28-1.07-.57-2.28-1.5-2.37-.94-.08-1.33,1.07-1.64,2.12-8.56,29.42-19.54,58.04-28.64,87.28-.53,1.71-1.1,4.02-3.93,3.92-2.68-.09-2.55-2.19-3.08-3.84-5.95-18.43-12.05-36.82-17.8-55.31-4.09-13.13-8.18-26.25-12.51-39.3-4.17-12.57-7.7-25.35-11.63-38.01-.98-3.16-2.39-6.19-3.59-9.28-1.05-2.72-3.29-3.56-5.91-4.06-2.8-.53-3.8-2.51-3.53-5.23.3-3,2.61-2.62,4.57-2.62,15.34-.03,30.69.03,46.03-.07,2.04-.01,3.5.27,3.31,2.56-.14,1.69,1.35,4.33-2.2,4.53-1.12.06-2.25.55-3.32.97-3.58,1.4-5.36,3.65-4.28,7.82,3.73,14.46,8.47,28.6,13.01,42.8,4.22,13.2,8.31,26.43,12.91,41.12,3.43-10.08,6.8-18.74,9.24-27.66,1.36-4.96,2.45-10.16,4.65-14.62,3.8-7.7,2.81-14.74.07-22.22-2.16-5.9-3.53-12.09-5.79-17.95-1.87-4.85-3.92-9.84-10.85-9.56-2.17.09-4.84-.82-4.31-4.6.52-3.69,2.98-3.1,5.22-3.1,16.46-.03,32.92.02,49.38,0,2.64,0,4.78-.06,5.4,3.59.71,4.23-2.92,2.82-4.45,4.02-.66.52-1.96.18-2.96.31-4.4.58-6.51,3.58-5.25,7.86,4.63,15.73,9.39,31.42,14.05,47.15,2.4,8.09,4.59,16.24,7.08,24.3.65,2.11.99,4.5,3.34,6.86,2.36-8.08,4.5-15.61,6.75-23.09,3.71-12.36,7.6-24.67,11.2-37.06,1.62-5.56,3.03-11.22,3.97-16.93.92-5.57-1.89-8.53-7.75-9.09-2.51-.24-4.44-.73-4.47-4.06-.02-3.42,1.81-3.87,4.47-3.87,22.78.01,45.56.03,68.34-.05,2.56,0,3.77,1.11,5.06,3.2,17.51,28.3,35.14,56.53,52.75,84.77.15.25.55.34.83.51.2.22.4.44.6.66.04-.28.07-.56.11-.84.03-20.53.17-41.06,0-61.58-.03-3.95-.86-8.02-2.08-11.79-1.25-3.84-4.09-6.59-8.5-6.94-1.34-.11-2.64-.53-3.89-.71-3.1-.44-2.54-2.49-2.61-4.43-.1-2.74,1.7-2.83,3.72-2.82,11.12.04,22.25.11,33.37,0,2.13-.02,3.64-.08,3.8,2.63.15,2.57-.07,4.95-3.15,5.19-5.22.42-9.14,2.92-10.74,7.67-1.15,3.41-1.12,7.31-1.12,11-.07,41.23-.04,82.45-.04,123.68,0,1.02-.05,2.04,0,3.05.1,1.76.02,3.56-1.89,4.25-2.04.74-2.94-.83-3.9-2.33-4.5-7.09-9.14-14.1-13.63-21.19-20.21-31.91-40.39-63.85-60.61-95.76-.43-.67-1.22-1.11-1.84-1.66-.14-.26-.27-.52-.41-.78-.05.28-.1.56-.15.85Z"/>
    <path class="cls-6" d="m799.93,677.53c-1.38,3.26-2.58,6.19-3.85,9.09-3.81,8.72-7.69,17.4-11.44,26.14-1.23,2.88-2.31,4.12-5.8,2.28-8.91-4.68-18.05-8.93-27.19-13.14-4.96-2.28-10.06-4.3-15.21-6.1-21.1-7.38-42.52-13.79-64.56-17.6-11.48-1.98-23.06-3.51-34.71-4.58-15.48-1.42-30.95-2.21-46.45-1.79-17.4.48-34.67,2.27-51.92,4.87-42.36,6.39-82.47,19.46-120.57,38.89-2.84,1.45-4.23,1.65-5.8-2.06-4.62-10.91-9.83-21.58-15.06-32.22-1.29-2.63-.34-3.46,1.77-4.5,26.74-13.17,54.54-23.46,83.21-31.64,16.29-4.65,32.84-8.08,49.48-10.8,11.17-1.83,22.59-2.62,33.93-3.59,18.97-1.61,37.91-1.44,56.81-.57,15.95.73,31.82,3,47.65,5.61,26.25,4.33,51.8,11.1,76.91,19.67,14.76,5.03,29.4,10.43,43.47,17.24,2.39,1.16,4.92,2.04,7.4,3.02,1,.4,1.65,1.06,1.95,1.74Z"/>
    <path class="cls-8" d="m409.12,772.89c10.24-.48,24.08-.04,37.87.88,14.17.95,27.12,5.1,34.06,19.13,5.86,11.85,6.72,24.27,3.34,37.05-2.89,10.92-9.32,18.77-19.72,23.27-2.63,1.14-3.29,1.9-1.48,5.05,9.33,16.16,18.08,32.67,27.21,48.95,2.92,5.21,5.71,10.76,12.55,12.16,2.76.56,1.09,3.04,1.42,4.63.35,1.62-.41,2.45-2.22,2.44-11.37-.05-22.74-.08-34.1.02-2.69.02-3.4-2.1-4.27-3.67-9.34-16.75-18.52-33.58-27.75-50.39-2.03-3.69-4.16-7.32-6.04-11.08-1.47-2.93-3.83-3.78-6.68-3.04-2.63.69-1.32,3.13-1.33,4.71-.11,14.76-.07,29.52-.06,44.28,0,8.46,3.32,12,11.8,11.93,3.67-.03,4.78,1.27,4.57,4.75-.13,2.11-1,2.49-2.81,2.48-19-.04-38.01-.05-57.01,0-2.38,0-3.48-.82-3.21-3.26.19-1.73-.45-4.01,2.51-3.88,12.67.59,13.82-4.15,14.17-17.29.66-24.58.33-49.2.13-73.79-.1-12.34.95-24.72-.69-37.04-1.13-8.5-1.9-9.27-10.35-10.48-1.91-.28-4.36-.37-5.4-2.04-.72-1.16-.4-3.26.02-4.78.48-1.76,2.23-1,3.51-1,8.79,0,17.58,0,29.97,0Zm12.78,43.11c0,9.16.07,18.32-.05,27.47-.03,2.48.46,3.49,3.29,3.62,4.61.2,9.13-.49,13.46-1.49,6-1.39,10.54-4.76,13.1-11.16,4.2-10.51,4.06-20.89,2.09-31.74-1.81-10-7.04-16.12-17.14-17.55-3.66-.52-7.44-.06-11.15-.35-2.97-.23-3.71.9-3.66,3.73.16,9.16.06,18.32.06,27.47Z"/>
    <path class="cls-4" d="m504.35,849.49c-.98-12,.43-23.93,5.21-35.24,8.36-19.76,20.08-36.89,42.49-41.74,28.11-6.09,54.63,2,69.67,32.65,7.44,15.15,10.51,31.01,9.88,47.48-.86,22.75-7.07,43.99-23.27,60.87-12.08,12.59-27.43,17.14-44.82,16.29-23.3-1.14-37.99-14.35-48.82-33.39-8.24-14.48-11.53-30.12-10.35-46.92Zm33.71,3.91c.66,4.8-.35,13.16.84,21.54,1.48,10.47,3.45,20.71,8.5,30.04,2.82,5.22,6.47,10.38,12.36,12.15,13.83,4.14,23.94-1.13,29.96-15.02,5.79-13.34,7.33-27.74,7.94-41.97.9-20.92.03-41.87-7.66-61.86-3.2-8.32-8.38-14.71-17.44-16.33-8.9-1.59-16.65.89-22.23,8.66-3.85,5.36-6.45,11.25-8.21,17.53-3.82,13.65-4.47,27.65-4.07,45.25Z"/>
    <path class="cls-2" d="m364.69,888.61c1.17,8.23,2.47,15.7-4.18,22.58-11.96,12.37-26.06,19.69-43.12,19.13-22.23-.73-39.6-10.99-51.39-30.13-7.34-11.91-10.87-24.88-12.34-38.81-2.64-25.11,4.11-47.52,18.99-67.22,11.57-15.31,27.25-24.79,47.22-24.48,10.61.16,20.68,3.61,29.93,8.64,8.49,4.61,11.3.15,11.88-5.92.26-2.73,1.41-2.78,3.48-2.88,2.71-.13,3.02,1.31,3.01,3.45-.04,16.12-.08,32.24.04,48.35.02,2.63-1.3,3.79-3.38,4.14-2.55.43-2.59-1.56-3.15-3.5-2.74-9.59-4.95-19.31-11.82-27.28-13.67-15.85-36.05-16.67-49.82,1.89-7.28,9.81-9.76,21.23-11.67,32.97-1.65,10.11-1.36,20.28-.75,30.32.9,14.79,2.91,29.56,11.2,42.52,9.98,15.6,26.76,17.1,41.53,10.28,8.7-4.01,14.57-11.3,20.25-18.69,1.37-1.78,2.73-3.58,4.09-5.36Z"/>
    <path class="cls-5" d="m835.85,809.45c.05-.28.1-.56.15-.85.14.26.27.52.41.78l-.27.12-.29-.06Z"/>
    <path class="cls-9" d="m909.52,861.1c-.04.28-.07.56-.11.84-.2-.22-.4-.44-.6-.66.2-.19.44-.25.71-.18Z"/>
  </g>
</svg>
